HIERARCHY
ROOT joint_Root
{
	OFFSET 0.0 0.0 0.0
	CHANNELS 6 Xposition Yposition Zposition Zrotation Xrotation Yrotation 
	JOINT Hips
	{
		OFFSET -17.1583 93.1646 452.98
		CHANNELS 6 Xposition Yposition Zposition Zrotation Xrotation Yrotation 
		JOINT Spine
		{
			OFFSET 15.7357 0.0 0.0
			CHANNELS 6 Xposition Yposition Zposition Zrotation Xrotation Yrotation 
			JOINT Chest
			{
				OFFSET 8.98455 -0.406207 0.0
				CHANNELS 6 Xposition Yposition Zposition Zrotation Xrotation Yrotation 
				JOINT Neck
				{
					OFFSET 16.3773 0.0 0.0
					CHANNELS 6 Xposition Yposition Zposition Zrotation Xrotation Yrotation 
					JOINT Head
					{
						OFFSET 6.45672 0.0 0.0
						CHANNELS 6 Xposition Yposition Zposition Zrotation Xrotation Yrotation 
						End Site
						{
							OFFSET 0.0 0.0 0.0
						}
					}
				}
				JOINT Shoulder_L
				{
					OFFSET 12.9942 -0.242716 4.98039
					CHANNELS 6 Xposition Yposition Zposition Zrotation Xrotation Yrotation 
					JOINT UpperArm_L
					{
						OFFSET 5.34809 0.0 0.0
						CHANNELS 6 Xposition Yposition Zposition Zrotation Xrotation Yrotation 
						JOINT LowerArm_L
						{
							OFFSET 24.3286 1.87007e-05 0.0
							CHANNELS 6 Xposition Yposition Zposition Zrotation Xrotation Yrotation 
							JOINT Hand_L
							{
								OFFSET 22.2916 0.0 0.0
								CHANNELS 6 Xposition Yposition Zposition Zrotation Xrotation Yrotation 
								End Site
								{
									OFFSET 0.0 0.0 0.0
								}
							}
						}
					}
				}
				JOINT Shoulder_R
				{
					OFFSET 12.9945 -0.242716 -4.98039
					CHANNELS 6 Xposition Yposition Zposition Zrotation Xrotation Yrotation 
					JOINT UpperArm_R
					{
						OFFSET -5.34813 0.0 0.0
						CHANNELS 6 Xposition Yposition Zposition Zrotation Xrotation Yrotation 
						JOINT LowerArm_R
						{
							OFFSET -24.3289 0.000322201 0.0
							CHANNELS 6 Xposition Yposition Zposition Zrotation Xrotation Yrotation 
							JOINT Hand_R
							{
								OFFSET -22.2915 -0.000108084 0.0
								CHANNELS 6 Xposition Yposition Zposition Zrotation Xrotation Yrotation 
								End Site
								{
									OFFSET 0.0 0.0 0.0
								}
							}
						}
					}
				}
			}
		}
		JOINT UpperLeg_L
		{
			OFFSET -2.19248 -6.46944 0.0
			CHANNELS 6 Xposition Yposition Zposition Zrotation Xrotation Yrotation 
			JOINT LowerLeg_L
			{
				OFFSET 39.0811 0.0 -1.23785e-05
				CHANNELS 6 Xposition Yposition Zposition Zrotation Xrotation Yrotation 
				JOINT Foot_L
				{
					OFFSET 40.9854 0.0 -1.26872e-05
					CHANNELS 6 Xposition Yposition Zposition Zrotation Xrotation Yrotation 
					JOINT Toes_L
					{
						OFFSET 11.7543 0.0 0.0
						CHANNELS 6 Xposition Yposition Zposition Zrotation Xrotation Yrotation 
						End Site
						{
							OFFSET 0.0 0.0 0.0
						}
					}
				}
			}
		}
		JOINT UpperLeg_R
		{
			OFFSET -2.19251 6.46944 0.0
			CHANNELS 6 Xposition Yposition Zposition Zrotation Xrotation Yrotation 
			JOINT LowerLeg_R
			{
				OFFSET -39.0811 -0.00228153 -0.0401928
				CHANNELS 6 Xposition Yposition Zposition Zrotation Xrotation Yrotation 
				JOINT Foot_R
				{
					OFFSET -40.9854 0.0 0.0
					CHANNELS 6 Xposition Yposition Zposition Zrotation Xrotation Yrotation 
					JOINT Toes_R
					{
						OFFSET -11.7543 0.0 0.0
						CHANNELS 6 Xposition Yposition Zposition Zrotation Xrotation Yrotation 
						End Site
						{
							OFFSET 0.0 0.0 0.0
						}
					}
				}
			}
		}
	}
}
MOTION
Frames:	5
Frame Time:	0.0333333
0.000000 0.000000 0.000000 0.000000 0.000000 -0.000000 -4.359810 93.141900 -1.004260 85.731300 0.433674 2.356380 15.735700 0.000005 -0.000001 68.794200 87.688500 -74.903200 8.984550 -0.406207 -0.000000 -3.484230 -1.072830 -12.254100 16.377300 -0.000001 -0.000001 -1.985750 0.501506 -10.982800 6.456720 -0.000001 -0.000000 -2.397980 2.623220 -16.112200 12.994200 -0.242716 4.980390 -92.966900 9.745920 -72.977100 5.348090 -0.000007 -0.000001 -53.120000 -12.135000 6.456040 24.328600 0.000019 0.000005 7.879600 20.666500 -21.412200 22.291600 -0.000001 0.000005 6.966410 4.868690 9.996770 12.994500 -0.242716 -4.980390 94.049000 -7.271550 -60.783400 -5.348130 -0.000001 -0.000004 -24.390800 -61.426500 -59.013900 -24.328900 0.000322 -0.000009 -0.001043 -9.194370 -0.000054 -22.291500 -0.000108 -0.000004 48.550700 5.502130 -6.619670 -2.192480 -6.469440 -0.000000 -167.741000 -6.082070 0.372910 39.081100 -0.000007 -0.000012 -0.014201 0.054627 14.571700 40.985400 -0.000006 -0.000013 -3.871260 15.401500 -68.257200 11.754300 -0.000000 0.000003 0.000151 0.165048 -9.882690 -2.192510 6.469440 -0.000001 -178.667000 7.470270 -178.206000 -39.081100 -0.002282 -0.040193 -0.000450 0.018069 11.833400 -40.985400 0.000008 0.000006 -5.797260 9.058690 -66.042000 -11.754300 -0.000006 -0.000006 -0.007130 0.248446 -6.484960
0.000000 0.000000 0.000000 0.000000 0.000000 -0.000000 -4.355200 93.145000 -1.004310 85.768000 0.615328 2.329150 15.735700 0.000005 -0.000001 68.219100 87.578900 -74.316100 8.984550 -0.406207 -0.000000 -3.304880 -1.208090 -12.231400 16.377300 -0.000001 -0.000001 -2.011500 0.433322 -11.136600 6.456720 -0.000001 -0.000000 -2.730330 2.531050 -16.233500 12.994200 -0.242716 4.980390 -92.919300 9.662450 -73.100000 5.348090 -0.000007 -0.000001 -53.186000 -12.517500 6.492390 24.328600 0.000019 0.000005 7.796290 20.720600 -21.155200 22.291600 -0.000001 0.000005 7.154210 4.874090 9.890810 12.994500 -0.242716 -4.980390 94.047700 -7.238690 -60.681100 -5.348130 -0.000001 -0.000004 -24.729700 -61.560700 -59.503500 -24.328900 0.000322 -0.000009 -0.001043 -9.045200 -0.000053 -22.291500 -0.000108 -0.000004 48.212700 5.493260 -6.264530 -2.192480 -6.469440 -0.000000 -167.796000 -5.968870 0.308186 39.081100 -0.000007 -0.000012 -0.013351 0.051426 14.553400 40.985400 -0.000006 -0.000013 -3.866960 15.426600 -68.283200 11.754300 -0.000000 0.000003 -0.000059 0.168607 -9.738130 -2.192510 6.469440 -0.000001 -178.720000 7.644320 -178.218000 -39.081100 -0.002282 -0.040193 -0.000387 0.017780 11.826000 -40.985400 0.000008 0.000006 -5.822700 9.100370 -66.056400 -11.754300 -0.000006 -0.000006 -0.007241 0.249390 -6.446430
0.000000 0.000000 0.000000 0.000000 0.000000 -0.000000 -4.365290 93.131100 -0.968023 85.769100 0.765927 2.428120 15.735700 0.000005 -0.000001 68.208500 87.435100 -74.292900 8.984550 -0.406207 -0.000000 -3.044650 -1.330780 -12.205800 16.377300 -0.000001 -0.000001 -2.126380 0.372684 -11.230600 6.456720 -0.000001 -0.000000 -2.881580 2.489830 -16.291500 12.994200 -0.242716 4.980390 -92.876300 9.589440 -73.216700 5.348090 -0.000007 -0.000001 -53.274700 -12.578100 6.474770 24.328600 0.000019 0.000005 7.733150 20.839100 -20.892700 22.291600 -0.000001 0.000005 7.043150 4.872500 9.922060 12.994500 -0.242716 -4.980390 94.064800 -7.243970 -60.595600 -5.348130 -0.000001 -0.000004 -24.996800 -61.618400 -59.791500 -24.328900 0.000322 -0.000009 -0.001043 -9.108520 -0.000054 -22.291500 -0.000108 -0.000004 48.010000 5.489730 -6.125200 -2.192480 -6.469440 -0.000000 -167.776000 -5.898270 0.336378 39.081100 -0.000007 -0.000012 -0.013797 0.052728 14.663100 40.985400 -0.000006 -0.000013 -3.844950 15.524400 -68.330300 11.754300 -0.000000 0.000003 0.000017 0.167344 -9.789450 -2.192510 6.469440 -0.000001 -178.712000 7.704940 -178.143000 -39.081100 -0.002282 -0.040193 -0.000191 0.016665 11.946400 -40.985400 0.000008 0.000006 -5.758280 8.979780 -66.190200 -11.754300 -0.000006 -0.000006 -0.007368 0.250461 -6.402700
0.000000 0.000000 0.000000 0.000000 0.000000 -0.000000 -4.387930 93.115700 -0.931075 85.787300 0.886759 2.515840 15.735700 0.000005 -0.000001 68.348600 87.295600 -74.437800 8.984550 -0.406207 -0.000000 -2.786350 -1.435370 -12.214300 16.377300 -0.000001 -0.000001 -2.249480 0.285478 -11.229700 6.456720 -0.000001 -0.000000 -2.991670 2.428920 -16.192900 12.994200 -0.242716 4.980390 -92.817700 9.499110 -73.394000 5.348090 -0.000007 -0.000001 -53.424000 -12.580800 6.436020 24.328600 0.000019 0.000005 7.755260 21.162700 -20.668000 22.291600 -0.000001 0.000005 6.923490 4.871800 9.935840 12.994500 -0.242716 -4.980390 94.052800 -7.204530 -60.535000 -5.348130 -0.000001 -0.000004 -25.088900 -61.649500 -59.869300 -24.328900 0.000322 -0.000009 -0.001044 -9.022290 -0.000053 -22.291500 -0.000108 -0.000004 47.632100 5.486590 -6.003050 -2.192480 -6.469440 -0.000000 -167.770000 -5.781250 0.367450 39.081100 -0.000007 -0.000012 -0.014178 0.053853 14.749500 40.985400 -0.000006 -0.000013 -3.846360 15.558000 -68.372400 11.754300 -0.000000 0.000003 -0.000028 0.168089 -9.759210 -2.192510 6.469440 -0.000001 -178.709000 7.735600 -178.099000 -39.081100 -0.002282 -0.040193 0.000556 0.012955 12.106900 -40.985400 0.000008 0.000006 -5.626330 8.870580 -66.362000 -11.754300 -0.000006 -0.000006 -0.007131 0.248448 -6.484860
0.000000 0.000000 0.000000 0.000000 0.000000 -0.000000 -4.411540 93.094200 -0.881439 85.767000 0.997822 2.624510 15.735700 0.000005 -0.000001 68.299300 87.161900 -74.363200 8.984550 -0.406207 -0.000000 -2.545750 -1.553690 -12.162200 16.377300 -0.000001 -0.000001 -2.331690 0.154761 -11.124500 6.456720 -0.000001 -0.000000 -3.126170 2.393460 -16.231000 12.994200 -0.242716 4.980390 -92.768400 9.426380 -73.551000 5.348090 -0.000007 -0.000001 -53.619700 -12.336700 6.532260 24.328600 0.000019 0.000005 7.785120 21.282600 -20.639600 22.291600 -0.000001 0.000005 6.779850 4.870210 9.966970 12.994500 -0.242716 -4.980390 94.068000 -7.202860 -60.437400 -5.348130 -0.000001 -0.000004 -25.088900 -61.578600 -59.946500 -24.328900 0.000322 -0.000009 -0.001043 -8.872420 -0.000052 -22.291500 -0.000108 -0.000004 47.278200 5.488030 -6.059130 -2.192480 -6.469440 -0.000000 -167.740000 -5.510410 0.395459 39.081100 -0.000007 -0.000012 -0.015352 0.057678 14.904300 40.985400 -0.000006 -0.000013 -3.856300 15.432200 -68.430300 11.754300 -0.000000 0.000003 -0.000024 0.168021 -9.761950 -2.192510 6.469440 -0.000001 -178.696000 7.934080 -178.012000 -39.081100 -0.002282 -0.040193 0.001081 0.010373 12.257100 -40.985400 0.000008 0.000006 -5.434820 8.932350 -66.549100 -11.754300 -0.000006 -0.000006 -0.007306 0.249934 -6.424210
